<svg xmlns="http://www.w3.org/2000/svg" xmlns:v="https://vecta.io/nano" width="400" height="400" fill-rule="evenodd"><path d="M41.667 0h316.667C381.345 0 400 18.655 400 41.667v316.667C400 381.345 381.345 400 358.333 400H41.667C18.655 400 0 381.345 0 358.333V41.667C0 18.655 18.655 0 41.667 0z" fill="#0d3878"/><path d="M283.22 254.943c-5.253 2.233-11.298 3.349-18.13 3.349-9.196 0-15.961-1.904-20.296-5.716s-6.5-10.178-6.5-19.112v-75.752h-10.839v-9.457l10.839-6.306 13.792-21.087h8.475v21.087h22.069v15.763h-22.069v72.796c0 3.678.852 6.34 2.561 7.982s4.398 2.461 8.079 2.461c4.335 0 8.341-.721 12.019-2.166v16.159zm-70.174-5.904c-12.86 6.169-25.854 9.253-38.979 9.253-20.209 0-34.809-6.269-43.8-18.801s-13.484-30.544-13.484-54.038c0-23.625 4.462-41.668 13.386-54.136s23.689-18.703 44.293-18.703c12.86 0 25.724 3.084 38.584 9.253v20.081c-12.991-6.695-25.854-10.041-38.584-10.041s-21.493 4.462-26.28 13.386-7.188 22.311-7.188 40.159c0 17.718 2.427 31.071 7.285 40.062s13.453 13.484 25.787 13.484c14.831 0 28.479-3.738 40.95-11.221l-1.971 21.261zm25.408-194.867c-31.825 0-63.415 6.43-94.774 19.287l-8.284 3.55c-2.642 1.18-15.78 8.374-18.274 9.9-58.893 36.009-51.725 150.268-42.58 178.127 11.623 35.389 51.326 55.654 75.404 64.968 27.923 10.547 57.424 15.824 88.509 15.824 35.54 0 59.946-12.461 73.221-37.377s19.914-61.069 19.914-108.452-6.638-83.534-19.914-108.452-37.682-37.373-73.221-37.373z" fill="#fffffe"/><path d="M161.334 287.464s-4.196-1.017-4.453 3.603 1.872 6.402 1.872 6.402c42.735 29.721 117.35 4.458 139.344-28.618.677-1.019.931-1.85.426-2.448-.726-.574-1.761-.037-3.243 1.015-25.716 19.558-84.412 39.26-133.946 20.046z" fill="#ff6f00"/><div xmlns="" id="divScriptsUsed" style="display: none"/><script xmlns="" id="globalVarsDetection" src="chrome-extension://cmkdbmfndkfgebldhnkbfhlneefdaaip/js/wrs_env.js"/></svg>